{
    "asset" : {
        "generator" : "Khronos glTF Blender I/O v1.8.19",
        "version" : "2.0"
    },
    "scene" : 0,
    "scenes" : [
        {
            "name" : "Scene",
            "nodes" : [
                0
            ]
        }
    ],
    "nodes" : [
        {
            "mesh" : 0,
            "name" : "Barrel_01"
        }
    ],
    "materials" : [
        {
            "doubleSided" : true,
            "name" : "Barrel_01",
            "normalTexture" : {
                "index" : 0
            },
            "pbrMetallicRoughness" : {
                "baseColorTexture" : {
                    "index" : 1
                },
                "metallicRoughnessTexture" : {
                    "index" : 2
                }
            }
        }
    ],
    "meshes" : [
        {
            "name" : "Mesh",
            "primitives" : [
                {
                    "attributes" : {
                        "POSITION" : 0,
                        "NORMAL" : 1,
                        "TEXCOORD_0" : 2
                    },
                    "indices" : 3,
                    "material" : 0
                }
            ]
        }
    ],
    "textures" : [
        {
            "sampler" : 0,
            "source" : 0
        },
        {
            "sampler" : 0,
            "source" : 1
        },
        {
            "sampler" : 0,
            "source" : 2
        }
    ],
    "images" : [
        {
            "bufferView" : 4,
            "mimeType" : "image/jpeg",
            "name" : "Barrel_01_explosive_nor_gl_1k"
        },
        {
            "bufferView" : 5,
            "mimeType" : "image/jpeg",
            "name" : "Barrel_01_explosive_diff_1k"
        },
        {
            "bufferView" : 6,
            "mimeType" : "image/jpeg",
            "name" : "Barrel_01_explosive_arm_1k"
        }
    ],
    "accessors" : [
        {
            "bufferView" : 0,
            "componentType" : 5126,
            "count" : 2464,
            "max" : [
                0.4009350836277008,
                0.7845539450645447,
                1.1157474517822266
            ],
            "min" : [
                -0.5588259696960449,
                -0.0761355608701706,
                -0.2809116244316101
            ],
            "type" : "VEC3"
        },
        {
            "bufferView" : 1,
            "componentType" : 5126,
            "count" : 2464,
            "type" : "VEC3"
        },
        {
            "bufferView" : 2,
            "componentType" : 5126,
            "count" : 2464,
            "type" : "VEC2"
        },
        {
            "bufferView" : 3,
            "componentType" : 5123,
            "count" : 8046,
            "type" : "SCALAR"
        }
    ],
    "bufferViews" : [
        {
            "buffer" : 0,
            "byteLength" : 29568,
            "byteOffset" : 0
        },
        {
            "buffer" : 0,
            "byteLength" : 29568,
            "byteOffset" : 29568
        },
        {
            "buffer" : 0,
            "byteLength" : 19712,
            "byteOffset" : 59136
        },
        {
            "buffer" : 0,
            "byteLength" : 16092,
            "byteOffset" : 78848
        },
        {
            "buffer" : 0,
            "byteLength" : 212300,
            "byteOffset" : 94940
        },
        {
            "buffer" : 0,
            "byteLength" : 179308,
            "byteOffset" : 307240
        },
        {
            "buffer" : 0,
            "byteLength" : 243594,
            "byteOffset" : 486548
        }
    ],
    "samplers" : [
        {
            "magFilter" : 9729,
            "minFilter" : 9987
        }
    ],
    "buffers" : [
        {
            "byteLength" : 730144,
            "uri" : "data:application/octet-stream;base64,"
        }
    ]
}
